<svg data-name="Layer 1" viewBox="0 0 390 98" height="98" width="390"><defs id="SvgjsDefs1289"></defs><g id="SvgjsG1290" featurekey="rootContainer" transform="matrix(1,0,0,1,0,0)" fill="#a8d8ea"><rect xmlns="http://www.w3.org/2000/svg" width="390" height="98" rx="10" ry="10"></rect></g><g id="SvgjsG1291" featurekey="q4o0QG-0" transform="matrix(3.8109757617183155,0,0,3.8109757617183155,19.39024264241897,1.0213406339541962)" fill="#111111"><path d="M2.6 13.379999999999999 l2 -0.1 l-0.06 -2.78 l-0.5 -1.94 l-1.24 -0.1 z M3.14 5.199999999999999 l1.28 0 l2.62 0.18 l0.54 7.26 l0.2 7.24 l-0.6 0.04 l-2.26 0.1 l-0.24 0 l-0.18 -4.5 l-1.88 -0.12 l-0.5 4.6 l-1.96 0.06 l0.64 -7.48 l0.58 -4.28 l0.42 -3 z M15.66 6.16 l0.38 2.7 l-0.02 0.08 c0 0.02 -0.08 0.96 -0.12 1.9 c-0.04 0.54 -0.08 1.18 -0.1 1.88 l-0.72 1.28 l-1.92 0.64 l-1.7 0.08 l0.28 3.36 l0.1 1.7 l-1.38 0.16 c-0.14 0 -0.38 0.02 -0.6 0.04 c-0.14 0.02 -0.28 0.02 -0.42 0.02 l-0.7 -0.12 l0 -3.04 l-0.12 -1.98 c-0.02 -0.42 -0.02 -0.8 -0.02 -1.14 c-0.02 -0.62 -0.02 -1.22 -0.02 -1.44 l0 -4.62 l0.08 -2.36 l0.78 0 c0.46 0 1 -0.02 1.5 -0.02 c0.98 0 2.02 -0.04 2.28 0.02 c0.22 0.06 0.66 0.1 1.04 0.16 l0.7 0.12 z M12.84 12.68 l0.3 -0.3 c0 -0.32 0.1 -2.02 0.1 -2.22 s-0.18 -0.9 -0.22 -1.1 l-0.48 -0.52 l-0.68 -0.16 l-1.36 0 l-0.12 0.34 l-0.08 1.44 l0.16 2.52 l0.8 0.16 z M23.939999999999998 6.16 l0.38 2.7 l-0.02 0.08 c0 0.02 -0.08 0.96 -0.12 1.9 c-0.04 0.54 -0.08 1.18 -0.1 1.88 l-0.72 1.28 l-1.92 0.64 l-1.7 0.08 l0.28 3.36 l0.1 1.7 l-1.38 0.16 c-0.14 0 -0.38 0.02 -0.6 0.04 c-0.14 0.02 -0.28 0.02 -0.42 0.02 l-0.7 -0.12 l0 -3.04 l-0.12 -1.98 c-0.02 -0.42 -0.02 -0.8 -0.02 -1.14 c-0.02 -0.62 -0.02 -1.22 -0.02 -1.44 l0 -4.62 l0.08 -2.36 l0.78 0 c0.46 0 1 -0.02 1.5 -0.02 c0.98 0 2.02 -0.04 2.28 0.02 c0.22 0.06 0.66 0.1 1.04 0.16 l0.7 0.12 z M21.12 12.68 l0.3 -0.3 c0 -0.32 0.1 -2.02 0.1 -2.22 s-0.18 -0.9 -0.22 -1.1 l-0.48 -0.52 l-0.68 -0.16 l-1.36 0 l-0.12 0.34 l-0.08 1.44 l0.16 2.52 l0.8 0.16 z M29.679999999999996 14.02 l-0.16 0.36 l-3.92 -0.2 l-0.14 -1.64 l0.14 -0.56 l3.78 -0.1 l0.36 0.16 z M31.48 19.92 l-0.04 -6.94 l0.08 -0.74 l-0.04 -0.74 l0.1 -4.42 l0.18 -1.72 l6.5 0.12 l0.1 3.9 l-4.26 0 l-0.08 2.5 l3.26 -0.06 l0 0.22 l0.1 1.7 l-3.04 0.06 l0.1 2.96 l4.06 0.2 l0 3.08 z M45.5 5.52 l0.52 0.86 l0 2.44 l-0.06 1.24 l-2.68 -0.14 l0 -0.78 l0 -1.06 l-1.32 0.02 l-0.22 0.56 l0.22 2.72 l2.06 0.12 l2 0.24 l0.06 2.54 l0 1.8 l-0.26 3.14 l-1.8 0.88 l-2.64 -0.12 l-1.2 -0.48 l-0.6 -0.46 l-0.28 -1.46 l0.1 -2.48 l0.1 -0.8 l0.68 0.04 l1.56 0.18 l0 0.6 l0 0.66 l0 0.34 l0 0.54 l1.88 0.22 l0.06 -3.6 l-3.98 -0.22 l-0.16 -4.4 l-0.04 -2.88 l0.66 -0.48 c0.46 -0.02 0.86 -0.06 1.24 -0.1 c0.64 -0.06 1.28 -0.1 1.42 -0.1 c0.1 0 0.46 0.02 0.8 0.04 l0.64 0.04 z M47 5.359999999999999 l4.06 -0.12 l2.12 0.08 l0.6 0.04 l-0.22 2.9 l-1.6 -0.1 l0.12 11.84 l-3.54 0.04 l0.18 -7.04 l0.08 -4.88 l-1.94 -0.18 z M56.38 13.379999999999999 l2 -0.1 l-0.06 -2.78 l-0.5 -1.94 l-1.24 -0.1 z M56.92 5.199999999999999 l1.28 0 l2.62 0.18 l0.54 7.26 l0.2 7.24 l-0.6 0.04 l-2.26 0.1 l-0.24 0 l-0.18 -4.5 l-1.88 -0.12 l-0.5 4.6 l-1.96 0.06 l0.64 -7.48 l0.58 -4.28 l0.42 -3 z M67.94 12.6 l0 -4.04 l-2.42 0.04 c0 0.5 -0.16 1.4 -0.18 2.2 c0 0.46 -0.02 0.96 -0.06 1.48 l-0.12 1.74 l0 2.04 l0.2 1.16 l1.96 0.12 l0.42 -0.3 l0.12 -2.32 l0.36 0.04 l1.26 -0.04 l0.14 0.72 l-0.06 3 l0 1 l-1.24 0.52 l-0.38 0.06 l-0.34 0.04 l-3.02 -0.12 l-1.72 -0.64 l-0.64 -3.18 l0.24 -3 l0.18 -3.28 l0 -2.6 l0.74 -1.4 l0.68 -0.58 l2.32 0.06 l2.02 0 l1.22 0.54 l0.08 6.64 c-0.32 0.04 -1.44 0.1 -1.76 0.1 z M70.82000000000001 8.88 l3.2 0.08 l-0.16 2.5 l0.24 5.08 l-0.14 3.38 l-0.28 0.04 l-2.8 -0.06 l-0.12 -0.92 l-0.04 -5.36 z M70.94000000000001 4.98 l3.02 0.04 l0.14 0.78 l0 1.34 l-0.08 0.72 l-3.2 0.02 l-0.1 -1.3 l-0.04 -1.4 z M83.08000000000001 7.199999999999999 l-0.08 10.84 l-0.22 1.44 l-0.64 0.52 l-2.04 0.22 l-3.74 -0.36 l-0.54 -0.54 l-0.38 -0.82 l0.08 -3.44 c0 -1.5 0.02 -2.86 0.06 -4.06 c-0.02 -2.04 0 -4.08 0.06 -4.18 c0 -0.08 0.12 -0.42 0.34 -0.74 l0.26 -0.64 l3.16 -0.3 l2.26 0.28 l1.12 0.44 z M79.46000000000001 17.3 l0.74 -0.3 l0.24 -7.48 l-0.48 -0.28 l-1.92 -0.04 l-0.18 0.68 l0.04 2.82 l0 4.48 l0.32 0.06 z M84.58000000000001 5.26 l2.56 0.08 l2.16 10.14 l0.18 -1.06 l-0.58 -9.1 l2.22 -0.04 l0.88 0.2 l-0.4 14.4 l-1.78 0.24 l-1.78 -0.1 l-1.18 -8.78 l-0.42 -1.3 l0.06 10.04 l-2.06 0.18 l-0.1 -8.58 z"></path></g></svg>