<svg viewBox="0 0 350.00000000000006 238.0143549712942" height="238.0143549712942" width="350.00000000000006"><g id="SvgjsG1086" featurekey="cWd8YO-0" transform="matrix(1.1010737492381775,0,0,1.1010737492381775,104.53437065479041,-0.6089551827735453)" fill="#eeeeee"><g xmlns="http://www.w3.org/2000/svg"><path fill="#eeeeee" d="M18,101.5c-0.4,0.2-0.8,0.4-1.2,0.6c0.3,0.3,0.6,0.7,0.8,1c0.3-0.2,0.7-0.3,1-0.5   C18.4,102.3,18.2,101.9,18,101.5z"></path><path fill="#eeeeee" d="M12.3,83.5c-0.1,0-0.2-0.1-0.4-0.2c0.1,0.2,0.2,0.3,0.3,0.5C12.2,83.7,12.3,83.6,12.3,83.5z"></path><path fill="#eeeeee" d="M14.4,127.5c-4.3,0-7.8-1.2-10.3-3.6c-5.9-5.9-4.7-18,3.6-34l3.5,1.8C4,105.8,2.4,116.5,7,121.1   c8.6,8.6,40.8-5,74.9-39.1C116,47.8,129.7,15.6,121,7c-4.5-4.5-15.2-3-29.3,4.3l-1.8-3.5c16-8.2,28-9.5,34-3.6   c5.8,5.8,4.7,17.5-3.1,33c-7.5,14.9-20.3,31.7-36,47.5C58.2,111.2,30.6,127.5,14.4,127.5z"></path><path fill="#eeeeee" d="M64,126.7c-26.1,0-49.7-16.5-58.8-41C-0.6,70,0.1,53,7.1,37.8c7-15.2,19.5-26.8,35.2-32.6   c7-2.6,14.3-3.9,21.7-3.9c26.1,0,49.7,16.5,58.8,41c5.8,15.7,5.1,32.7-1.9,47.9c-7,15.2-19.5,26.8-35.2,32.6   C78.7,125.4,71.4,126.7,64,126.7z M64,5.3c-6.9,0-13.8,1.2-20.3,3.6c-14.7,5.4-26.4,16.3-33,30.5C4.1,53.7,3.5,69.7,8.9,84.4   c8.5,23,30.6,38.4,55.1,38.4c6.9,0,13.8-1.2,20.3-3.7c14.7-5.4,26.4-16.3,33-30.5c6.6-14.2,7.2-30.2,1.8-44.9   C110.6,20.7,88.5,5.3,64,5.3z"></path><path fill="#eeeeee" d="M47,123.3c-0.1,0-0.2,0-0.3,0c-12.1-3.6-22.8-10.6-30.7-20.5c-0.2-0.2-0.3-0.5-0.2-0.8   c0.1-0.3,0.2-0.5,0.5-0.7c1.3-0.8,2.6-1.5,3.9-2.1l-9.1-15.4c-0.2-0.4-0.2-0.9,0.2-1.2c0.3-0.3,0.8-0.4,1.2-0.1   c0.3,0.2,0.6,0.1,1-0.3c0.6-0.6,0.9-1.6,0.9-2.4c0-0.4-0.1-0.7-0.1-1.1c-0.2-1.9-0.5-4.2,1.2-5.6c0.8-0.7,1.9-0.9,2.8-1.1   c0.9-0.2,1.6-0.3,2-0.8c0.6-0.7,0.3-1.7-0.3-3.3c-0.2-0.5-0.4-1-0.5-1.6c-0.5-2,0-4.1,1.3-5.9c1.4-1.8,3.4-2.9,5.5-3L23.8,49   c-0.1-0.3,0-0.6,0.1-0.8c0.2-0.2,0.4-0.4,0.7-0.4l13.8-1.2c-1.3-5.1-1.3-10.4,0-15.5c0.1-0.4,0.5-0.7,0.9-0.7   c6.1-0.5,10.4,5.4,11.8,10.9l0.1,0.2c0.4,1.6,0.8,3.3,2,3.8c0.5,0.2,1,0.2,1.6,0.2l0.5,0c0.6,0,1.3,0,2,0.2c2.9,0.9,3.3,4,3.7,6.6   c0.2,1.7,0.5,3.5,1.3,4.7c1.2,1.7,3.4,2.2,5.8,2.7c2.4,0.5,4.9,1.1,6.7,2.9c1.6,1.7,2.1,4,2.7,6.2c0.6,2.6,1.2,4.8,3.2,5.6   c0.3,0.1,0.7,0.2,1.1,0.3c0.6,0.1,1.2,0.2,1.8,0.5c2.4,1.2,2.9,4.4,2.1,6.8c-0.5,1.4-1.3,2.6-2,3.7c-0.4,0.6-0.8,1.3-1.2,1.9   c-2.4,4.4-2.1,9.7-1.5,15.7c0,0.4-0.2,0.8-0.6,1c-0.4,0.2-0.9,0.1-1.1-0.3c-1-1.2-2.6-1.9-4.2-1.9c-1,0-1.9,0.2-2.6,0.7   c-2.2,1.3-3.2,4.2-2.4,6.5c0.1,0.4,0,0.8-0.3,1.1c-0.3,0.3-0.7,0.3-1.1,0.2l-17.3-7.3c-0.9-0.4-1.7-0.6-2.3-0.6   c-0.6,0-0.9,0.2-1,0.4c-0.4,0.4-0.4,1.1-0.5,1.9c-0.3,5.7-0.2,11.5,0.4,17.2c0,0.3-0.1,0.7-0.3,0.9C47.4,123.2,47.2,123.3,47,123.3   z M18.3,102.4c7.3,8.7,16.8,15,27.5,18.5c-0.5-5.3-0.6-10.7-0.3-16c0.1-1,0.2-2.2,1-3.1c1.1-1.2,2.9-1.3,5.5-0.2l15.6,6.6   c-0.1-2.7,1.3-5.6,3.7-7c2.2-1.2,5.2-1.2,7.4,0c-0.4-4.7-0.6-10,1.9-14.6c0.4-0.7,0.8-1.4,1.3-2c0.7-1.1,1.4-2.1,1.8-3.3   c0.5-1.6,0.3-3.7-1.1-4.4c-0.4-0.2-0.8-0.3-1.3-0.4c-0.4-0.1-0.9-0.2-1.4-0.4c-3-1.1-3.7-4.1-4.4-7c-0.5-2-1-4-2.2-5.3   c-1.3-1.4-3.4-1.9-5.6-2.3c-2.7-0.6-5.4-1.2-7-3.5c-1.1-1.6-1.4-3.6-1.6-5.6c-0.4-2.8-0.7-4.5-2.3-5c-0.4-0.1-0.9-0.1-1.4-0.1   l-0.5,0c-0.7,0-1.6,0-2.4-0.4c-2.1-0.9-2.7-3.3-3.2-5.2l-0.1-0.2c-1.2-4.6-4.6-9.3-9-9.4c-1.1,4.8-1,10.1,0.5,14.8   c0.1,0.3,0,0.6-0.1,0.8c-0.2,0.2-0.4,0.4-0.7,0.4L26,49.6l2.5,8.7c0.1,0.3,0,0.7-0.2,1c-0.2,0.3-0.6,0.4-0.9,0.3   c-1.8-0.4-3.8,0.5-5.1,2.2c-1,1.3-1.4,2.8-1,4.2c0.1,0.4,0.3,0.9,0.5,1.4c0.6,1.6,1.3,3.6,0,5.2c-0.8,1-2.1,1.3-3.2,1.5   c-0.8,0.1-1.5,0.3-1.9,0.7c-0.8,0.7-0.8,2-0.5,3.9c0,0.4,0.1,0.8,0.1,1.2c0.1,1.3-0.5,2.9-1.4,3.9c-0.4,0.4-0.8,0.7-1.2,0.8   l8.8,14.8c0.1,0.2,0.2,0.5,0.1,0.8c-0.1,0.3-0.3,0.5-0.5,0.6C20.8,101.1,19.6,101.7,18.3,102.4z"></path><path fill="#eeeeee" d="M112.8,101.1C112.8,101.1,112.8,101.1,112.8,101.1c-0.3,0-0.6-0.2-0.8-0.4l-10.2-15.1   c-0.5-0.8-1.2-1.7-1.3-2.9c-0.2-1.4,0.5-2.7,1.1-3.8c0.1-0.2,0.2-0.4,0.3-0.6c2-4,1.4-9.3-1.4-12.8c-0.2-0.3-0.4-0.5-0.7-0.8   c-0.7-0.8-1.5-1.7-1.9-2.9c-0.6-1.5-0.4-3.1-0.2-4.6c0.1-0.5,0.1-1.1,0.1-1.6c0.1-3.2-1.3-6.4-2.5-9.2L85,23   c-1.5-3.4-3.5-7-6.7-7.4c-0.6-0.1-1.2-0.1-1.9-0.2c-2.1-0.1-4.2-0.3-5.3-1.6c-0.5-0.6-0.7-1.3-0.6-2.1c0.1-1.6,1.5-2.6,2.7-3.3   c2.5-1.4,5.2-2.6,7.5-3.6c0.2-0.1,0.4-0.1,0.7,0c18.7,5.5,33.8,19.6,40.5,37.8c7.2,19.5,4.1,41.2-8.3,58   C113.4,100.9,113.1,101.1,112.8,101.1z M81.1,6.8c-2.1,0.9-4.6,2-6.9,3.3c-0.7,0.4-1.7,1-1.7,1.7c0,0.4,0.1,0.5,0.2,0.6   c0.5,0.6,2.4,0.8,4,0.9c0.7,0,1.4,0.1,2,0.2c4.2,0.6,6.5,4.7,8.2,8.6l10.3,23.4c1.3,3,2.8,6.4,2.7,10.1c0,0.6-0.1,1.2-0.1,1.7   c-0.1,1.3-0.3,2.6,0.1,3.7c0.3,0.8,0.9,1.5,1.6,2.3c0.2,0.3,0.5,0.6,0.7,0.8c3.3,4.2,3.9,10.1,1.6,14.9c-0.1,0.2-0.2,0.4-0.3,0.7   c-0.5,0.9-1,1.8-0.9,2.7c0.1,0.7,0.6,1.4,1,2l9.4,13.9c11.3-16.1,14-36.5,7.2-55C113.4,25.6,99.3,12.3,81.1,6.8z"></path></g></g><g id="SvgjsG1087" featurekey="TZbA6h-0" transform="matrix(2.8707349512505966,0,0,2.8707349512505966,-1.263123542815034,144.03871383531146)" fill="#eeeeee"><path d="M3.86 13.9 l-3.1 -0.58 c-0.02 -0.1 -0.02 -0.2 -0.02 -0.3 c0 -1.48 1.44 -2.64 4.3 -2.64 s3.92 1.18 3.92 3.76 l0 2.2 c0 0.86 0.02 1.36 0.66 1.36 c0.12 0 0.26 -0.02 0.44 -0.06 l-0.56 2.46 c-0.34 0.06 -0.64 0.08 -0.9 0.08 c-1.48 0 -2.12 -0.7 -2.34 -1.3 c-0.48 0.68 -1.2 1.4 -2.66 1.4 c-1.7 0 -3.16 -0.96 -3.16 -2.74 c0 -2.16 2.14 -3.14 5.4 -3.16 l0 -0.28 c0 -1.06 -0.26 -1.44 -1.02 -1.44 c-0.64 0 -0.98 0.26 -0.98 0.96 c0 0.08 0 0.18 0.02 0.28 z M5.84 16.88 l0 -0.74 c-1.22 0.02 -2.26 0.24 -2.26 1.16 c0 0.52 0.34 0.76 0.86 0.76 c0.6 0 1.32 -0.32 1.4 -1.18 z M10.84 24.56 l0 -2.26 l1.06 0 l0 -9.38 l-1.36 0 l0 -2.26 l4.26 0 l0 1.18 c0.06 -0.2 0.62 -1.46 2.68 -1.46 c3 0 3.98 2.54 3.98 4.8 c0 2.88 -1.56 5.1 -4.16 5.1 c-1.54 0 -2.22 -0.88 -2.28 -0.96 l0 2.98 l1.06 0 l0 2.26 l-5.24 0 z M16.619999999999997 17.96 c0.64 0 1.6 -0.26 1.6 -2.68 c0 -1.92 -0.6 -2.58 -1.56 -2.58 c-1.06 0 -1.64 0.8 -1.64 2.7 c0 1.7 0.46 2.56 1.6 2.56 z M22.54 24.56 l0 -2.26 l1.06 0 l0 -9.38 l-1.36 0 l0 -2.26 l4.26 0 l0 1.18 c0.06 -0.2 0.62 -1.46 2.68 -1.46 c3 0 3.98 2.54 3.98 4.8 c0 2.88 -1.56 5.1 -4.16 5.1 c-1.54 0 -2.22 -0.88 -2.28 -0.96 l0 2.98 l1.06 0 l0 2.26 l-5.24 0 z M28.32 17.96 c0.64 0 1.6 -0.26 1.6 -2.68 c0 -1.92 -0.6 -2.58 -1.56 -2.58 c-1.06 0 -1.64 0.8 -1.64 2.7 c0 1.7 0.46 2.56 1.6 2.56 z M35.7 16.06 c-0.06 0 -0.12 0 -0.18 0.02 l0 1.96 c0.04 0.02 0.12 0.02 0.18 0.02 c0.52 0 0.62 -0.38 0.62 -1 c0 -0.64 -0.1 -1 -0.62 -1 l0 0 z M38.74 16.78 l0 0.48 l-0.8 0 l0 0.76 l0.94 0 l0 0.48 l-1.52 0 l0 -2.9 l1.52 0 l0 0.5 l-0.94 0 l0 0.68 l0.8 0 z M35.66 18.54 c-0.16 0 -0.46 0 -0.72 -0.04 l0 -2.86 c0.26 -0.04 0.54 -0.08 0.74 -0.08 c0.9 0 1.22 0.5 1.22 1.5 c0 1.02 -0.34 1.48 -1.24 1.48 l0 0 z M39.4 15.6 l0.78 0 l0.38 1.6 l0.38 -1.6 l0.8 0 c0.04 0.7 0.08 1.96 0.12 2.9 l-0.58 0 c0 -0.68 -0.02 -1.4 -0.06 -2.08 l-0.4 1.64 l-0.54 0 l-0.4 -1.64 l-0.02 0 c-0.02 0.68 -0.04 1.4 -0.04 2.08 l-0.56 0 c0.02 -0.94 0.08 -2.2 0.14 -2.9 l0 0 z M43.32 18.54 c-0.8 0 -1.06 -0.46 -1.06 -1.48 s0.26 -1.5 1.06 -1.5 s1.08 0.48 1.08 1.5 s-0.28 1.48 -1.08 1.48 l0 0 z M43.32 16.06 c-0.4 0 -0.48 0.34 -0.48 1 c0 0.64 0.08 1 0.48 1 c0.42 0 0.5 -0.36 0.5 -1 c0 -0.66 -0.08 -1 -0.5 -1 z M43.12 10.08 c1.04 0 1.24 0.84 1.24 1.26 c0 0.62 -0.62 0.98 -1.04 1.04 c-1.44 0.16 -2.48 0.62 -3.32 1.44 c0 0 1.46 -3.74 3.12 -3.74 l0 0 z M36.46 11.12 c1.88 0 3.12 3.74 3.12 3.74 c-0.82 -1.04 -1.86 -1.44 -3.12 -1.44 c-0.62 0 -1.24 -0.42 -1.24 -1.04 c0 -0.64 0.42 -1.26 1.24 -1.26 l0 0 z M39.96 8.14 c1.34 1.3 -0.38 4.86 -0.38 4.86 c0.14 -1.32 -0.32 -2.36 -1.22 -3.22 c-0.44 -0.44 -0.6 -1.16 -0.18 -1.62 c0.44 -0.44 1.18 -0.6 1.78 -0.02 l0 0 z M52.6 17.02 l2.74 0.48 c-0.52 1.74 -1.76 2.78 -4.26 2.78 c-3.12 0 -4.92 -1.62 -4.92 -4.84 c0 -2.6 1.16 -5.06 4.78 -5.06 c2.94 0 4.4 1.62 4.4 4.64 l0 1.02 l-5.92 0 c0.08 1.34 0.46 1.92 1.76 1.92 c0.8 0 1.28 -0.22 1.42 -0.94 z M49.46 14.14 l2.6 0 l0 -0.02 c0 -1.1 -0.42 -1.52 -1.24 -1.52 c-0.76 0 -1.2 0.36 -1.36 1.54 z M56.32 17.5 l2.94 -0.46 c0 0.04 -0.02 0.08 -0.02 0.12 c0 0.44 0.38 0.8 1.28 0.8 c0.58 0 1.04 -0.18 1.04 -0.56 c0 -1.2 -5.04 -0.48 -5.04 -4 c0 -1.82 1.34 -3.02 3.98 -3.02 c2.22 0 4 0.84 4 2.34 c0 0.12 -0.02 0.26 -0.04 0.38 l-3.12 0.54 c0.02 -0.06 0.02 -0.14 0.02 -0.2 c0 -0.38 -0.28 -0.74 -0.9 -0.74 c-0.6 0 -0.78 0.3 -0.78 0.56 c0 1.4 5.08 0.5 5.08 3.96 c0 2.14 -1.92 3.06 -4.36 3.06 c-2.22 0 -4.1 -0.8 -4.1 -2.52 c0 -0.08 0 -0.16 0.02 -0.26 z M66.76 16.96 l0 -4.04 l-1.36 0 l0 -2.26 l1.4 0 l0.18 -2.56 l2.9 0 l0 2.56 l2.56 0 l0 2.26 l-2.56 0 l0 4.04 c0 0.46 0.14 0.74 0.54 0.74 c0.5 0 0.6 -0.56 0.64 -1.12 l2.28 0.8 c-0.4 1.58 -1.02 2.82 -3.3 2.82 c-2.48 0 -3.28 -1.58 -3.28 -3.24 z M77.2 13.9 l-3.1 -0.58 c-0.02 -0.1 -0.02 -0.2 -0.02 -0.3 c0 -1.48 1.44 -2.64 4.3 -2.64 s3.92 1.18 3.92 3.76 l0 2.2 c0 0.86 0.02 1.36 0.66 1.36 c0.12 0 0.26 -0.02 0.44 -0.06 l-0.56 2.46 c-0.34 0.06 -0.64 0.08 -0.9 0.08 c-1.48 0 -2.12 -0.7 -2.34 -1.3 c-0.48 0.68 -1.2 1.4 -2.66 1.4 c-1.7 0 -3.16 -0.96 -3.16 -2.74 c0 -2.16 2.14 -3.14 5.4 -3.16 l0 -0.28 c0 -1.06 -0.26 -1.44 -1.02 -1.44 c-0.64 0 -0.98 0.26 -0.98 0.96 c0 0.08 0 0.18 0.02 0.28 z M79.18 16.88 l0 -0.74 c-1.22 0.02 -2.26 0.24 -2.26 1.16 c0 0.52 0.34 0.76 0.86 0.76 c0.6 0 1.32 -0.32 1.4 -1.18 z M90.10000000000001 16.68 l2.9 0.58 c-0.54 1.78 -1.58 3.02 -4.16 3.02 c-3.24 0 -4.68 -1.82 -4.68 -4.98 c0 -3.7 2.04 -4.92 4.76 -4.92 c2.4 0 4.04 1.08 4.04 2.98 c0 0.12 0 0.24 -0.02 0.36 l-3.06 0.62 c0.02 -0.14 0.02 -0.28 0.02 -0.42 c0 -0.92 -0.52 -1.22 -1.02 -1.22 c-1.34 0 -1.48 1.44 -1.48 2.78 c0 1.66 0.4 2.48 1.48 2.48 c0.76 0 1.22 -0.48 1.22 -1.28 z M94.1 20 l0 -2.26 l1.06 0 l0 -4.82 l-1.36 0 l0 -2.26 l4.48 0 l0 7.08 l1.06 0 l0 2.26 l-5.24 0 z M94.64 7.4 c0 -1.02 0.84 -1.84 1.86 -1.84 c1.04 0 1.86 0.82 1.86 1.84 s-0.82 1.86 -1.86 1.86 c-1.02 0 -1.86 -0.84 -1.86 -1.86 z M105.17999999999999 20.28 c-3.78 0 -4.92 -2.34 -4.92 -5.02 c0 -2.62 1.08 -4.88 4.86 -4.88 c3.86 0 4.88 2.34 4.88 4.92 c0 2.74 -1.14 4.98 -4.82 4.98 z M105.14 17.96 c1.36 0 1.62 -1.26 1.62 -2.62 s-0.26 -2.64 -1.64 -2.64 c-1.36 0 -1.62 1.28 -1.62 2.6 c0 1.34 0.26 2.66 1.64 2.66 z M111.25999999999999 20 l0 -2.26 l1.06 0 l0 -4.82 l-1.36 0 l0 -2.26 l4.26 0 l0 1.68 c0.24 -0.64 1.02 -1.96 3.1 -1.96 c1.38 0 2.98 0.56 2.98 3.48 l0 3.88 l1.06 0 l0 2.26 l-5.04 0 l0 -2.26 l0.86 0 l0 -3.08 c0 -1.1 -0.26 -1.64 -0.9 -1.64 c-1.12 0 -1.68 1.4 -1.84 1.96 l0 2.76 l0.86 0 l0 2.26 l-5.04 0 z"></path></g><g id="SvgjsG1088" featurekey="hKLqjk-0" transform="matrix(0.8174835764478796,0,0,0.8174835764478796,133.00270334180482,221.41943743386653)" fill="#eeeeee"><path d="M9.78 20.3 l-7.68 -0.000019531 c-0.24 0 -0.44666 -0.08666 -0.62 -0.26 s-0.26 -0.38 -0.26 -0.62 c0 -0.66666 0.10334 -1.2633 0.31 -1.79 s0.47666 -1.0167 0.81 -1.47 c0.33334 -0.46666 0.70334 -0.89666 1.11 -1.29 s0.80332 -0.78334 1.19 -1.17 l2.8 -2.8 c0.26666 -0.26666 0.47 -0.57 0.61 -0.91 s0.21 -0.69666 0.21 -1.07 s-0.06666 -0.72 -0.2 -1.04 s-0.31668 -0.6 -0.55002 -0.84 s-0.51 -0.42666 -0.83 -0.56 s-0.66666 -0.2 -1.04 -0.2 c-0.36 0 -0.7 0.07 -1.02 0.21 s-0.6 0.33 -0.84 0.57 s-0.43 0.52334 -0.57 0.85 s-0.21 0.67 -0.21 1.03 c0 0.24 -0.08666 0.44666 -0.26 0.62 s-0.38 0.26 -0.62 0.26 c-0.25334 0 -0.46668 -0.08666 -0.64002 -0.26 s-0.26 -0.38 -0.26 -0.62 c0 -0.61334 0.11666 -1.1867 0.35 -1.72 s0.55 -1 0.95 -1.4 s0.87 -0.71666 1.41 -0.95 s1.11 -0.35 1.71 -0.35 c0.62666 0 1.2067 0.11334 1.74 0.34 s0.99668 0.53666 1.39 0.93 s0.7 0.86 0.92 1.4 s0.33 1.1233 0.33 1.75 c0 0.6 -0.11334 1.1767 -0.34 1.73 s-0.55332 1.0433 -0.97998 1.47 l-2.8 2.8 c-0.30666 0.30666 -0.62 0.60332 -0.94 0.88998 s-0.62666 0.59 -0.92 0.91 c-0.24 0.26666 -0.44666 0.54666 -0.62 0.84 s-0.29334 0.60668 -0.36 0.94002 l6.72 0 c0.24 0 0.45 0.08666 0.63 0.26 s0.27 0.38668 0.27 0.64002 c0 0.24 -0.09 0.44666 -0.27 0.62 s-0.39 0.26 -0.63 0.26 z M35.86 20.3 c-0.61334 0 -1.1867 -0.11666 -1.72 -0.35 s-1 -0.55 -1.4 -0.95 s-0.71666 -0.86666 -0.95 -1.4 s-0.35 -1.1067 -0.35 -1.72 l0 -7.08 c0 -0.61334 0.11666 -1.1867 0.35 -1.72 s0.55 -1 0.95 -1.4 s0.86666 -0.71666 1.4 -0.95 s1.1067 -0.35 1.72 -0.35 s1.19 0.11666 1.73 0.35 s1.01 0.55 1.41 0.95 s0.71666 0.86666 0.95 1.4 s0.35 1.1067 0.35 1.72 l0 7.08 c0 0.61334 -0.11666 1.1867 -0.35 1.72 s-0.55 1 -0.95 1.4 s-0.87 0.71666 -1.41 0.95 s-1.1167 0.35 -1.73 0.35 z M38.52 8.8 c0 -0.36 -0.07 -0.7 -0.21 -1.02 s-0.33 -0.6 -0.57 -0.84 s-0.52334 -0.43 -0.85 -0.57 s-0.67 -0.21 -1.03 -0.21 s-0.7 0.07 -1.02 0.21 s-0.6 0.33 -0.84 0.57 s-0.43 0.52 -0.57 0.84 s-0.21 0.66 -0.21 1.02 l0 7.08 c0 0.36 0.07 0.7 0.21 1.02 s0.33 0.6 0.57 0.84 s0.52 0.43 0.84 0.57 s0.66 0.21 1.02 0.21 s0.70334 -0.07 1.03 -0.21 s0.61 -0.33 0.85 -0.57 s0.43 -0.52 0.57 -0.84 s0.21 -0.66 0.21 -1.02 l0 -7.08 z M70.22 20.3 l-7.68 -0.000019531 c-0.24 0 -0.44666 -0.08666 -0.62 -0.26 s-0.26 -0.38 -0.26 -0.62 c0 -0.66666 0.10334 -1.2633 0.31 -1.79 s0.47666 -1.0167 0.81 -1.47 c0.33334 -0.46666 0.70334 -0.89666 1.11 -1.29 s0.80332 -0.78334 1.19 -1.17 l2.8 -2.8 c0.26666 -0.26666 0.47 -0.57 0.61 -0.91 s0.21 -0.69666 0.21 -1.07 s-0.06666 -0.72 -0.2 -1.04 s-0.31668 -0.6 -0.55002 -0.84 s-0.51 -0.42666 -0.83 -0.56 s-0.66666 -0.2 -1.04 -0.2 c-0.36 0 -0.7 0.07 -1.02 0.21 s-0.6 0.33 -0.84 0.57 s-0.43 0.52334 -0.57 0.85 s-0.21 0.67 -0.21 1.03 c0 0.24 -0.08666 0.44666 -0.26 0.62 s-0.38 0.26 -0.62 0.26 c-0.25334 0 -0.46668 -0.08666 -0.64002 -0.26 s-0.26 -0.38 -0.26 -0.62 c0 -0.61334 0.11666 -1.1867 0.35 -1.72 s0.55 -1 0.95 -1.4 s0.87 -0.71666 1.41 -0.95 s1.11 -0.35 1.71 -0.35 c0.62666 0 1.2067 0.11334 1.74 0.34 s0.99668 0.53666 1.39 0.93 s0.7 0.86 0.92 1.4 s0.33 1.1233 0.33 1.75 c0 0.6 -0.11334 1.1767 -0.34 1.73 s-0.55332 1.0433 -0.97998 1.47 l-2.8 2.8 c-0.30666 0.30666 -0.62 0.60332 -0.94 0.88998 s-0.62666 0.59 -0.92 0.91 c-0.24 0.26666 -0.44666 0.54666 -0.62 0.84 s-0.29334 0.60668 -0.36 0.94002 l6.72 0 c0.24 0 0.45 0.08666 0.63 0.26 s0.27 0.38668 0.27 0.64002 c0 0.24 -0.09 0.44666 -0.27 0.62 s-0.39 0.26 -0.63 0.26 z M100.22000000000001 14.24 l-1.08 -0.000058594 l0 5.18 c0 0.24 -0.08666 0.44666 -0.26 0.62 s-0.38 0.26 -0.62 0.26 c-0.25334 0 -0.46668 -0.08666 -0.64002 -0.26 s-0.26 -0.38 -0.26 -0.62 l0 -5.18 l-5.48 0 c-0.24 0 -0.45 -0.09334 -0.63 -0.28 s-0.27 -0.4 -0.27 -0.64 c0 -0.06666 0.01 -0.13332 0.03 -0.19998 s0.05666 -0.13332 0.11 -0.19998 l5.86 -8.08 c0.08 -0.10666 0.19 -0.21 0.33 -0.31 s0.30334 -0.15 0.49 -0.15 c0.22666 0 0.43 0.09 0.61 0.27 s0.27 0.38334 0.27 0.61 c0 0.17334 -0.04666 0.31334 -0.14 0.42 l-5 6.78 l3.82 0 l0 -3.54 c0 -0.24 0.08666 -0.44666 0.26 -0.62 s0.38668 -0.26 0.64002 -0.26 c0.24 0 0.44666 0.08666 0.62 0.26 s0.26 0.38 0.26 0.62 l0 3.54 l1.08 0 c0.25334 0 0.46668 0.08666 0.64002 0.26 s0.26 0.38 0.26 0.62 c0 0.25334 -0.08666 0.46668 -0.26 0.64002 s-0.38668 0.26 -0.64002 0.26 z"></path></g></svg>